<svg xmlns="http://www.w3.org/2000/svg" version="1.1" xmlns:xlink="http://www.w3.org/1999/xlink" xmlns:svgjs="http://svgjs.dev/svgjs" width="1000" height="262" viewBox="0 0 1000 262"><g transform="matrix(1,0,0,1,-0.6059880618176976,-0.010501890771735134)"><svg viewBox="0 0 396 104" data-background-color="#ffffff" preserveAspectRatio="xMidYMid meet" height="262" width="1000" xmlns="http://www.w3.org/2000/svg" xmlns:xlink="http://www.w3.org/1999/xlink"><g id="tight-bounds" transform="matrix(1,0,0,1,0.23997127247980643,0.004168689466638398)"><svg viewBox="0 0 395.52 103.99166262106674" height="103.99166262106674" width="395.52"><g><svg viewBox="0 0 395.52 103.99166262106674" height="103.99166262106674" width="395.52"><g transform="matrix(1,0,0,1,0,68.20703374354855)"><svg viewBox="0 0 395.52 35.78462887751819" height="35.78462887751819" width="395.52"><g><svg viewBox="0 0 395.52 35.78462887751819" height="35.78462887751819" width="395.52"><g><svg viewBox="0 0 395.52 35.78462887751819" height="35.78462887751819" width="395.52"><g transform="matrix(1,0,0,1,0,0)"><svg width="395.52" viewBox="0.539711058139801 -27.51888084411621 417.5747375488281 37.780029296875" height="35.78462887751819" data-palette-color="#ffa458"><path d="M15.673 9.235l-12.729 1.026-0.317-2.191 2.763-0.946c0.056-0.132 0.075-0.484 0.055-1.057-0.013-0.581-0.044-1.381-0.093-2.401-0.049-1.026-0.129-2.223-0.24-3.592v0l-0.626-8.387c-0.105-1.302-0.215-2.457-0.329-3.465-0.114-1.001-0.212-1.795-0.293-2.384-0.08-0.582-0.154-0.921-0.222-1.015v0l-3.074-0.425-0.028-2.214 11.532-0.93c3.668-0.296 6.499 0.182 8.493 1.432 1.994 1.257 3.098 3.208 3.311 5.852v0c0.141 1.754-0.194 3.356-1.007 4.807-0.813 1.443-2.026 2.625-3.637 3.544-1.612 0.913-3.551 1.46-5.817 1.643v0c-0.605 0.049-1.189 0.066-1.751 0.05-0.564-0.021-1.105-0.058-1.624-0.109v0l-0.251-3.11c0.493 0.147 1.014 0.256 1.561 0.325 0.554 0.069 1.15 0.078 1.788 0.027v0c1.661-0.134 2.899-0.715 3.712-1.744 0.82-1.029 1.155-2.471 1.006-4.325v0c-0.175-2.166-0.855-3.717-2.041-4.651-1.185-0.928-2.685-1.318-4.499-1.172v0l-1.674 0.135c0.018 0.219 0.042 0.649 0.074 1.288 0.038 0.639 0.088 1.464 0.149 2.476 0.068 1.004 0.155 2.175 0.263 3.51v0l0.726 8.379c0.11 1.369 0.223 2.564 0.339 3.584 0.109 1.015 0.212 1.799 0.31 2.353 0.092 0.554 0.159 0.893 0.203 1.017v0l3.922 0.366zM40.493 7.406l-11.492 0.795-0.292-2.195 2.959-0.976c-0.013-0.186-0.028-0.546-0.044-1.08-0.023-0.526-0.052-1.139-0.087-1.838-0.029-0.706-0.063-1.436-0.101-2.188-0.032-0.753-0.071-1.462-0.118-2.127v0l-0.53-7.672c-0.095-1.37-0.195-2.579-0.301-3.628-0.106-1.055-0.205-1.9-0.296-2.536-0.091-0.635-0.174-1.014-0.249-1.135v0l-3.062-0.51-0.013-2.215 11.832-0.818c3.445-0.238 6.056 0.166 7.832 1.213 1.77 1.054 2.739 2.791 2.907 5.212v0c0.109 1.57-0.257 3.002-1.097 4.296-0.84 1.288-2.05 2.34-3.63 3.158-1.581 0.818-3.425 1.299-5.534 1.445v0l-2.923 0.202-0.176-2.544 2.205-0.152c1.663-0.115 2.969-0.703 3.918-1.765 0.956-1.062 1.376-2.421 1.261-4.077v0c-0.108-1.563-0.623-2.724-1.544-3.482-0.914-0.752-2.186-1.072-3.815-0.959v0l-2.105 0.146c-0.027 0.095-0.038 0.327-0.032 0.694 0.012 0.373 0.04 0.863 0.081 1.468 0.042 0.605 0.092 1.33 0.151 2.175 0.058 0.845 0.126 1.826 0.203 2.943v0l0.564 8.15c0.068 0.984 0.143 1.972 0.225 2.962 0.088 0.99 0.182 1.865 0.282 2.626 0.099 0.762 0.177 1.301 0.232 1.618v0l2.786 0.579zM53.319 7.051v0c-1.663 0.115-3.165-0.062-4.507-0.531-1.349-0.468-2.601-1.274-3.756-2.416-1.154-1.136-2.295-2.645-3.42-4.525v0l-3.28-5.687 4.672-1.436 6.05 7.48c0.838 0.998 1.616 1.816 2.335 2.455 0.712 0.639 1.435 1.127 2.166 1.464 0.732 0.337 1.503 0.571 2.314 0.702v0l0.093 2.069c-0.439 0.124-0.884 0.218-1.333 0.282-0.443 0.064-0.888 0.112-1.334 0.143zM72.065 5.859v0c-2.875 0.165-5.466-0.294-7.772-1.377-2.306-1.09-4.16-2.666-5.56-4.729-1.401-2.07-2.181-4.492-2.341-7.268v0c-0.164-2.849 0.33-5.418 1.481-7.708 1.15-2.296 2.814-4.148 4.99-5.555 2.183-1.407 4.712-2.194 7.587-2.358v0c2.809-0.161 5.312 0.296 7.511 1.371 2.192 1.076 3.964 2.64 5.318 4.693 1.347 2.053 2.101 4.487 2.262 7.303v0c0.136 2.363-0.173 4.487-0.926 6.373-0.76 1.887-1.799 3.502-3.118 4.847-1.312 1.337-2.788 2.384-4.427 3.139-1.64 0.749-3.308 1.171-5.005 1.269zM72.267 2.582v0c1.564-0.09 2.865-0.575 3.903-1.456 1.038-0.874 1.792-2.103 2.263-3.686 0.47-1.583 0.643-3.459 0.518-5.629v0c-0.145-2.523-0.614-4.699-1.407-6.53-0.793-1.831-1.828-3.231-3.105-4.199-1.271-0.969-2.738-1.405-4.403-1.31v0c-2.329 0.134-4.119 1.191-5.367 3.173-1.249 1.975-1.778 4.626-1.586 7.954v0c0.138 2.396 0.624 4.482 1.46 6.256 0.843 1.781 1.924 3.155 3.242 4.121 1.324 0.966 2.818 1.401 4.482 1.306zM89.027-21.504l0.043-2.214 12.707-0.558c5.182-0.228 9.264 0.804 12.248 3.096 2.983 2.285 4.569 5.585 4.759 9.901v0c0.124 2.817-0.446 5.341-1.71 7.572-1.263 2.231-3.067 4.015-5.41 5.352-2.344 1.337-5.051 2.074-8.121 2.209v0l-13.237 0.581-0.237-2.202 2.985-0.851c0.082-0.257 0.126-1.077 0.133-2.459 0.006-1.375-0.031-2.988-0.113-4.839v0l-0.337-7.683c-0.087-1.978-0.193-3.645-0.32-5.001-0.126-1.356-0.24-2.128-0.342-2.317v0zM98.212-21.136v0c0.011 0.253 0.023 0.67 0.034 1.249 0.012 0.573 0.029 1.347 0.052 2.32 0.03 0.98 0.077 2.219 0.143 3.718v0l0.338 7.682c0.038 0.859 0.083 1.738 0.136 2.637 0.059 0.892 0.128 1.703 0.207 2.433 0.079 0.737 0.145 1.328 0.197 1.773v0c0.838 0.09 1.632 0.159 2.382 0.206 0.756 0.047 1.471 0.056 2.143 0.026v0c2.911-0.128 5.089-1.048 6.535-2.76 1.446-1.712 2.095-4.263 1.946-7.652v0c-0.097-2.205-0.436-4.081-1.018-5.631-0.582-1.543-1.358-2.803-2.328-3.782-0.971-0.985-2.099-1.69-3.386-2.113-1.28-0.424-2.656-0.604-4.127-0.54v0c-0.513 0.023-1.041 0.069-1.586 0.14-0.537 0.07-1.094 0.168-1.668 0.294zM123.392 0.819l2.996-0.814c0.093-0.223 0.148-1.015 0.165-2.377 0.024-1.361 0.006-3.002-0.055-4.92v0l-0.241-7.686c-0.064-2.046-0.151-3.747-0.261-5.105-0.103-1.357-0.207-2.115-0.312-2.271v0l-3.039-0.575 0.07-2.213 12.904-0.406c3.298-0.104 5.788 0.388 7.47 1.476 1.681 1.081 2.557 2.741 2.628 4.98v0c0.055 1.759-0.631 3.261-2.059 4.507-1.435 1.246-3.336 1.986-5.703 2.22v0l-0.012-0.38c3.016 0.032 5.359 0.639 7.03 1.82 1.665 1.182 2.531 2.842 2.598 4.981v0c0.08 2.559-0.942 4.602-3.069 6.129-2.127 1.521-5.126 2.342-8.997 2.465v0l-11.904 0.374zM131.857-16.975l0.353 11.224c0.042 1.346 0.096 2.522 0.161 3.527 0.065 1.005 0.119 1.667 0.162 1.986v0c0.35 0.089 0.839 0.164 1.468 0.223 0.629 0.06 1.183 0.083 1.663 0.068v0c1.919-0.06 3.385-0.54 4.397-1.439 1.012-0.892 1.494-2.138 1.443-3.737v0c-0.058-1.859-0.661-3.211-1.808-4.055-1.147-0.844-2.857-1.231-5.129-1.159v0c-0.706 0.022-1.276 0.04-1.71 0.053-0.426 0.013-0.865 0.061-1.316 0.142v0l-0.092-2.929c0.481 0.018 0.931 0.027 1.352 0.028 0.414 0.007 0.877 0.002 1.39-0.014v0c1.826-0.057 3.205-0.541 4.136-1.451 0.932-0.916 1.372-2.188 1.321-3.813v0c-0.047-1.506-0.541-2.678-1.481-3.515-0.94-0.831-2.336-1.217-4.189-1.159v0l-2.208 0.069c-0.025 0.254-0.027 0.941-0.006 2.062 0.015 1.12 0.046 2.416 0.093 3.889zM160.736 2.421v0c-1.373 0.029-2.847-0.124-4.421-0.457-1.581-0.334-2.921-0.792-4.019-1.376v0l-0.384-6.813 2.736-0.248 1.678 4.666c0.717 0.465 1.524 0.808 2.422 1.029 0.905 0.221 1.771 0.323 2.597 0.306v0c1.506-0.032 2.659-0.383 3.459-1.053 0.806-0.677 1.197-1.576 1.174-2.695v0c-0.024-1.12-0.379-2.022-1.068-2.708-0.688-0.692-1.564-1.284-2.627-1.776-1.07-0.484-2.201-0.954-3.391-1.409-1.196-0.455-2.328-1.008-3.395-1.659-1.074-0.651-1.955-1.483-2.643-2.495-0.695-1.006-1.058-2.295-1.092-3.868v0c-0.035-1.66 0.404-3.133 1.317-4.418 0.92-1.28 2.219-2.29 3.898-3.033 1.685-0.742 3.647-1.137 5.886-1.184v0c0.766-0.016 1.567 0.017 2.403 0.1 0.835 0.076 1.638 0.202 2.408 0.379 0.771 0.177 1.448 0.386 2.034 0.628v0l0.62 6.658-2.735 0.258-1.584-4.438c-1.038-0.552-2.228-0.813-3.567-0.785v0c-1.44 0.03-2.592 0.405-3.457 1.123-0.865 0.725-1.285 1.694-1.26 2.907v0c0.023 1.093 0.379 1.992 1.067 2.698 0.682 0.706 1.565 1.311 2.649 1.815 1.084 0.504 2.231 0.993 3.442 1.468 1.21 0.468 2.359 1.017 3.445 1.648 1.087 0.637 1.977 1.445 2.672 2.424 0.687 0.972 1.047 2.212 1.078 3.718v0c0.034 1.6-0.416 3.043-1.349 4.329-0.933 1.28-2.256 2.298-3.967 3.054-1.711 0.756-3.72 1.158-6.026 1.207zM191.621 1.561l-8.83 0.052-0.153-2.209 2.446-0.735 9.648-24.107 3.588-2.081 11.053 26.046 2.445 0.705-0.127 2.211-11.81 0.069-0.153-2.209 3.016-0.737-2.729-6.515-0.539-1.576-5.01-11.831 1.3 0.042-4.251 11.735-0.471 1.443-2.32 6.784 3.034 0.702zM190.042-6.83v0l-0.018-3.02c0.607 0.023 1.35 0.059 2.23 0.107 0.88 0.041 2.007 0.058 3.381 0.05v0c1.347-0.008 2.476-0.038 3.389-0.09 0.913-0.059 1.656-0.103 2.23-0.133v0l0.017 2.97c-0.767 0.005-1.607-0.007-2.52-0.035-0.913-0.021-1.947-0.029-3.1-0.022v0c-1.147 0.007-2.17 0.026-3.07 0.058-0.893 0.039-1.74 0.077-2.539 0.115zM237.684-6.711l-1.63-0.009 0.047-8.36c0.009-1.66 0.007-3.107-0.006-4.34-0.006-1.233-0.031-2.217-0.073-2.951-0.049-0.74-0.103-1.174-0.163-1.301v0l-3.306-0.738 0.153-2.209 9.89 0.055 0.127 2.211-3.024 0.703c-0.034 0.126-0.076 0.56-0.127 1.299-0.051 0.733-0.096 1.716-0.137 2.95-0.04 1.233-0.065 2.68-0.074 4.339v0l-0.055 9.84c-0.008 1.347-0.008 2.58-0.001 3.7 0.014 1.12 0.017 2.24 0.011 3.36v0l-2.74-0.015-18.592-22.855 2.02 0.011-0.059 10.56c-0.01 1.793-0.005 3.33 0.014 4.61 0.026 1.28 0.06 2.287 0.103 3.021 0.049 0.734 0.103 1.197 0.162 1.391v0l3.306 0.738-0.153 2.21-9.979-0.057-0.138-2.21 3.034-0.703c0.061-0.193 0.11-0.673 0.148-1.44 0.038-0.766 0.077-1.796 0.118-3.089 0.034-1.3 0.056-2.796 0.065-4.49v0l0.039-6.959c0.006-1.12-0.001-2.13-0.023-3.031-0.028-0.894-0.064-1.637-0.107-2.23-0.05-0.594-0.088-0.954-0.114-1.081v0l-3.026-0.737 0.162-2.209 7.24 0.041zM252.804 1.811l-8.828-0.165-0.099-2.213 2.463-0.674 10.239-23.862 3.638-1.992 10.409 26.309 2.426 0.766-0.181 2.207-11.808-0.221-0.099-2.213 3.033-0.663-2.567-6.579-0.501-1.59-4.717-11.95 1.299 0.074-4.538 11.627-0.507 1.431-2.487 6.725 3.016 0.776zM251.432-6.616v0l0.056-3.02c0.606 0.038 1.349 0.092 2.228 0.162 0.879 0.063 2.005 0.108 3.378 0.133v0c1.346 0.025 2.477 0.023 3.39-0.006 0.914-0.036 1.658-0.062 2.232-0.078v0l-0.055 2.969c-0.767-0.014-1.606-0.047-2.519-0.097-0.913-0.044-1.946-0.076-3.099-0.098v0c-1.146-0.021-2.17-0.027-3.07-0.018-0.894 0.017-1.741 0.034-2.541 0.053zM298.418-4.943l-2.437 8.093c-0.738-0.088-1.523-0.161-2.355-0.219-0.826-0.051-1.614-0.104-2.366-0.159-0.752-0.055-1.385-0.09-1.898-0.105v0l-14.773-0.431-0.086-2.213 3.05-0.631c0.065-0.158 0.123-0.573 0.176-1.246 0.053-0.665 0.101-1.528 0.145-2.587 0.051-1.052 0.094-2.202 0.131-3.447v0l0.224-7.687c0.038-1.306 0.062-2.479 0.072-3.52 0.017-1.04 0.019-1.897 0.005-2.57-0.014-0.674-0.049-1.075-0.105-1.204v0l-3.006-0.858 0.214-2.205 12.995 0.379 0.082 2.313-4.008 0.554c-0.029 0.093-0.08 0.451-0.151 1.076-0.065 0.618-0.129 1.457-0.193 2.515-0.057 1.052-0.106 2.281-0.148 3.688v0l-0.224 7.686c-0.052 1.786-0.082 3.266-0.089 4.44-0.001 1.167 0.01 1.941 0.032 2.322v0c0.51 0.115 1.045 0.197 1.604 0.246 0.559 0.043 1.238 0.076 2.038 0.1v0l2.249 0.065c0.74 0.022 1.384 0.01 1.932-0.034 0.542-0.051 1.007-0.101 1.395-0.149v0l2.787-5.011zM322.693-22.092l-2.476 0.625-10.638 15.541 1.945-4.248-0.181 4.696c-0.031 0.799-0.053 1.542-0.067 2.229-0.013 0.693-0.02 1.304-0.02 1.831-0.007 0.527 0.006 0.958 0.04 1.293 0.04 0.342 0.072 0.56 0.095 0.654v0l3.341 0.799-0.237 2.253-12.661-0.49-0.062-2.264 3.383-0.539c0.037-0.092 0.079-0.307 0.125-0.646 0.046-0.332 0.096-0.76 0.15-1.285 0.047-0.525 0.094-1.134 0.141-1.826 0.04-0.686 0.075-1.428 0.106-2.228v0l0.181-4.696 1.183 4.369-8.938-16.298-2.41-0.813 0.225-2.203 11.752 0.454 0.054 2.214-2.996 0.604 6.008 11.041-1.009-0.039 6.703-10.549-3.33-0.849 0.235-2.203 9.303 0.36zM349.638-23.21v0l0.699 8.305-2.698 0.107-1.647-5.559c-0.35-0.084-0.691-0.141-1.023-0.171-0.339-0.037-0.681-0.064-1.027-0.081v0l-1.678-0.083c-0.293-0.015-0.653-0.032-1.079-0.053-0.433-0.021-0.781-0.005-1.043 0.048v0c-0.011 0.22-0.047 0.809-0.108 1.767-0.061 0.958-0.134 2.103-0.22 3.433-0.079 1.324-0.153 2.672-0.221 4.044v0l-0.252 5.084c-0.092 1.858-0.158 3.52-0.197 4.986-0.046 1.473-0.069 2.53-0.067 3.171v0l4.094 0.834-0.254 2.29-14.053-0.697-0.026-2.304 4.146-0.425c0.065-0.638 0.151-1.691 0.257-3.161 0.106-1.463 0.205-3.124 0.297-4.982v0l0.252-5.083c0.068-1.372 0.125-2.72 0.171-4.047 0.053-1.332 0.103-2.478 0.15-3.437 0.048-0.959 0.06-1.549 0.038-1.77v0c-0.25-0.079-0.584-0.129-1.004-0.15-0.413-0.02-0.779-0.039-1.098-0.054v0l-1.728-0.086c-0.353-0.018-0.703-0.025-1.051-0.022-0.354-0.004-0.708 0.018-1.064 0.067v0l-2.143 5.461-2.673-0.413 1.42-8.25c0.351 0.051 0.78 0.095 1.285 0.134 0.512 0.045 1.063 0.099 1.654 0.162 0.591 0.056 1.156 0.107 1.695 0.154 0.545 0.04 1.024 0.071 1.437 0.092v0l12.664 0.627c0.413 0.02 0.899 0.038 1.459 0.053 0.56 0.008 1.131 0.013 1.712 0.015 0.574-0.005 1.118-0.005 1.632 0 0.513 0.012 0.944 0.01 1.292-0.006zM363.914 6.079l-12.03-0.698-0.012-2.215 3.057-0.544c0.076-0.156 0.146-0.552 0.209-1.189 0.07-0.637 0.153-1.48 0.247-2.53 0.095-1.056 0.18-2.237 0.256-3.541v0l0.445-7.678c0.08-1.371 0.133-2.583 0.161-3.636 0.028-1.06 0.045-1.917 0.05-2.572 0.012-0.66-0.013-1.039-0.075-1.136v0l-2.973-0.894 0.268-2.198 12.03 0.698 0.011 2.215-3.056 0.543c-0.074 0.123-0.153 0.502-0.237 1.139-0.084 0.636-0.166 1.483-0.247 2.54-0.074 1.051-0.151 2.262-0.231 3.632v0l-0.446 7.677c-0.076 1.304-0.138 2.486-0.186 3.546-0.041 1.053-0.057 1.9-0.047 2.541 0.009 0.642 0.043 1.044 0.1 1.208v0l2.973 0.894zM383.474 7.819v0c-3-0.202-5.631-0.923-7.892-2.164-2.255-1.241-3.984-2.96-5.186-5.16-1.195-2.198-1.691-4.814-1.487-7.847v0c0.148-2.202 0.672-4.188 1.573-5.958 0.907-1.763 2.129-3.251 3.667-4.464 1.545-1.212 3.346-2.11 5.403-2.694 2.057-0.583 4.316-0.792 6.778-0.627v0c1.403 0.094 2.831 0.334 4.281 0.719 1.451 0.385 2.686 0.852 3.704 1.401v0l-0.137 7.117-2.697 0.009-1.248-4.995c-0.582-0.387-1.276-0.697-2.082-0.931-0.8-0.227-1.616-0.369-2.447-0.425v0c-2.015-0.135-3.733 0.214-5.152 1.047-1.419 0.833-2.526 2.042-3.32 3.625-0.795 1.584-1.264 3.446-1.408 5.588v0c-0.172 2.554 0.114 4.768 0.856 6.643 0.736 1.88 1.8 3.348 3.192 4.404 1.386 1.055 2.957 1.642 4.713 1.759v0c0.865 0.058 1.751-0.013 2.66-0.212 0.915-0.192 1.691-0.508 2.329-0.946v0l2.109-4.238 2.854 0.483-1.805 6.132c-1.032 0.539-2.385 0.992-4.061 1.361-1.675 0.369-3.407 0.493-5.197 0.373zM405.952 9.466v0c-1.369-0.107-2.821-0.404-4.354-0.891-1.54-0.488-2.828-1.076-3.865-1.765v0l0.29-6.818 2.747 0.023 1.21 4.808c0.667 0.533 1.437 0.954 2.309 1.263 0.879 0.309 1.73 0.496 2.554 0.56v0c1.502 0.117 2.684-0.119 3.546-0.706 0.869-0.594 1.347-1.45 1.434-2.567v0c0.087-1.117-0.178-2.05-0.795-2.8-0.616-0.757-1.43-1.432-2.44-2.026-1.017-0.587-2.096-1.166-3.235-1.736-1.146-0.571-2.218-1.233-3.216-1.986-1.005-0.754-1.799-1.668-2.384-2.743-0.592-1.069-0.827-2.388-0.705-3.957v0c0.129-1.655 0.711-3.077 1.747-4.267 1.042-1.183 2.434-2.061 4.177-2.634 1.75-0.573 3.741-0.772 5.974-0.598v0c0.764 0.06 1.558 0.171 2.381 0.336 0.824 0.158 1.61 0.363 2.36 0.615 0.749 0.252 1.403 0.527 1.961 0.825v0l-0.039 6.687-2.747-0.013-1.139-4.572c-0.979-0.651-2.137-1.029-3.472-1.133v0c-1.436-0.112-2.619 0.147-3.551 0.776-0.932 0.636-1.445 1.559-1.54 2.769v0c-0.085 1.09 0.18 2.02 0.796 2.79 0.609 0.77 1.428 1.459 2.457 2.067 1.029 0.608 2.123 1.208 3.28 1.801 1.158 0.585 2.247 1.245 3.266 1.979 1.019 0.741 1.825 1.633 2.42 2.676 0.588 1.035 0.824 2.304 0.706 3.806v0c-0.124 1.595-0.714 2.987-1.769 4.176-1.055 1.182-2.471 2.064-4.249 2.648-1.777 0.584-3.816 0.786-6.115 0.607z" opacity="1" transform="matrix(1,0,0,1,0,0)" fill="#ffa458" class="undefined-text-0" data-fill-palette-color="primary" id="text-0"></path></svg></g></svg></g></svg></g></svg></g><g transform="matrix(1,0,0,1,171.02313088435386,0)"><svg viewBox="0 0 53.47373823129226 57.89952952382443" height="57.89952952382443" width="53.47373823129226"><g><svg xmlns="http://www.w3.org/2000/svg" xmlns:xlink="http://www.w3.org/1999/xlink" version="1.1" x="0" y="0" viewBox="18 15.074999809265137 64 69.29700469970703" enable-background="new 0 0 100 100" xml:space="preserve" height="57.89952952382443" width="53.47373823129226" class="icon-icon-0" data-fill-palette-color="accent" id="icon-0"><g fill="#ffa458" data-fill-palette-color="accent"><path fill="#ffa458" d="M50 22.372c16.542 0 30 13.458 30 30s-13.458 30-30 30-30-13.458-30-30S33.458 22.372 50 22.372M50 20.372c-17.673 0-32 14.327-32 32 0 17.673 14.327 32 32 32s32-14.327 32-32C82 34.699 67.673 20.372 50 20.372L50 20.372z" data-fill-palette-color="accent"></path><rect x="42" y="15.075" fill="#ffa458" width="16" height="2.517" data-fill-palette-color="accent"></rect><path fill="#ffa458" d="M80.011 35.359c0 0-0.166-0.268-0.455-0.737-0.3-0.448-0.681-1.186-1.223-1.896-0.265-0.367-0.551-0.765-0.854-1.185-0.289-0.428-0.68-0.836-1.036-1.283-0.37-0.438-0.733-0.908-1.165-1.33-0.418-0.435-0.842-0.876-1.266-1.318-0.454-0.41-0.908-0.821-1.355-1.225-0.435-0.419-0.916-0.767-1.365-1.124-0.458-0.344-0.872-0.718-1.317-1-0.436-0.294-0.848-0.572-1.229-0.829-0.75-0.532-1.446-0.86-1.9-1.144-0.464-0.268-0.729-0.42-0.729-0.42l0.936-1.768c0 0 0.321 0.083 0.867 0.274 0.272 0.1 0.603 0.221 0.981 0.36 0.386 0.133 0.814 0.296 1.246 0.538 0.444 0.222 0.925 0.468 1.421 0.751 0.508 0.265 0.993 0.619 1.505 0.974 0.502 0.366 1.061 0.701 1.534 1.154 0.493 0.431 0.993 0.869 1.494 1.307 0.452 0.487 0.904 0.975 1.35 1.455 0.464 0.463 0.819 1.008 1.199 1.5 0.373 0.503 0.73 0.97 1.023 1.482 0.307 0.497 0.57 0.981 0.812 1.424 0.265 0.44 0.431 0.851 0.565 1.213 0.144 0.362 0.269 0.678 0.372 0.938 0.199 0.524 0.29 0.838 0.29 0.838L80.011 35.359z" data-fill-palette-color="accent"></path><circle fill="#ffa458" cx="50" cy="52.372" r="3.5" data-fill-palette-color="accent"></circle><polygon fill="#ffa458" points="48.499,50.871 69.166,32.499 69.873,33.206 51.502,53.874  " data-fill-palette-color="accent"></polygon><polygon fill="#ffa458" points="48.593,53.962 36.554,41.149 37.216,40.4 51.406,50.78  " data-fill-palette-color="accent"></polygon></g></svg></g></svg></g><g></g></svg></g><defs></defs></svg><rect width="395.52" height="103.99166262106674" fill="none" stroke="none" visibility="hidden"></rect></g></svg></g></svg>